<svg xmlns="http://www.w3.org/2000/svg" viewBox="0 0 139.4 144.02"><defs><style>.cls-1,.cls-2{fill:#fff200;}.cls-2,.cls-4{fill-rule:evenodd;}.cls-3,.cls-4{fill:#231f20;}</style></defs><g id="Layer_2" data-name="Layer 2"><g id="Layer_1-2" data-name="Layer 1"><path class="cls-1" d="M87.52,119.29v17.22a3.15,3.15,0,0,1-3.16,3.14H12.11A3.15,3.15,0,0,1,9,136.51V119.29Z"/><path class="cls-1" d="M87.52,7.52V18.91H9V7.52a3.15,3.15,0,0,1,3.14-3.15H84.36A3.15,3.15,0,0,1,87.52,7.52Z"/><path class="cls-2" d="M137.41,90.91H71.86l1.06-2.73c3.31-8.49,7.54-19.74,8.9-25.06.15-.6.31-1.29.49-2.09,1.06-4.7,2.44-9.56,5.21-13.49a18,18,0,0,1,4.36-4.43c3.07-2.19,7.15-3.6,12.69-3.8h.14c16.15.58,20,11.51,22.26,21.72.18.79.33,1.48.49,2.08,1.35,5.32,5.58,16.57,8.89,25.07Z"/><rect class="cls-3" x="40.73" y="8.73" width="18.91" height="4.36"/><path class="cls-3" d="M44.16,135.16a6.92,6.92,0,1,0-6.92-6.92A6.92,6.92,0,0,0,44.16,135.16Zm0-9.46a2.55,2.55,0,1,1-2.55,2.54A2.54,2.54,0,0,1,44.16,125.7Z"/><path class="cls-3" d="M32.52,8.24a2.18,2.18,0,1,0,2.17,2.17A2.18,2.18,0,0,0,32.52,8.24Z"/><path class="cls-3" d="M87.28,43.11V7.52A7.53,7.53,0,0,0,79.76,0H7.51A7.53,7.53,0,0,0,0,7.52v129A7.53,7.53,0,0,0,7.51,144H79.76a7.53,7.53,0,0,0,7.52-7.51V90.91H82.92v24H4.37V23.28H82.92V47.54A18,18,0,0,1,87.28,43.11Zm-4.36,76.18v17.22a3.15,3.15,0,0,1-3.16,3.14H7.51a3.15,3.15,0,0,1-3.14-3.14V119.29ZM4.37,18.91V7.52A3.15,3.15,0,0,1,7.51,4.37H79.76a3.15,3.15,0,0,1,3.16,3.15V18.91Z"/><path class="cls-4" d="M127.18,62c-.14-.56-.29-1.23-.46-2-1.79-8-5.53-24.54-26.64-25.2H100a28.84,28.84,0,0,0-12.72,3,22.12,22.12,0,0,0-4.36,3C76.39,46.59,74.49,55,73.36,60.05c-.17.74-.32,1.4-.46,2-1.83,7.16-9.34,26.19-12.22,33.36h26.7l.13,1.86a12.78,12.78,0,0,0,25.5,0l.13-1.87H139.4C136.52,88.2,129,69.17,127.18,62ZM108.44,97.7a8.27,8.27,0,0,1-16.36,0l-.38-2.33h17.13ZM67.26,90.91l1.06-2.73c3.31-8.49,7.54-19.74,8.9-25.06.15-.6.31-1.29.49-2.09,1.06-4.7,2.44-9.56,5.21-13.49a18,18,0,0,1,4.36-4.43c3.07-2.19,7.15-3.6,12.69-3.8h.14c16.15.58,20,11.51,22.26,21.72.18.79.33,1.48.49,2.08,1.35,5.32,5.58,16.57,8.89,25.07l1.06,2.73Z"/><path d="M136.68,64.81a2.43,2.43,0,0,1-2.32-1.75l-4.45-15.4a2.42,2.42,0,0,1,1.65-3,2.22,2.22,0,0,1,.67-.1,2.42,2.42,0,0,1,2.32,1.74L139,61.72a2.42,2.42,0,0,1-1.64,3A2.29,2.29,0,0,1,136.68,64.81Z"/></g></g></svg>