<svg xmlns="http://www.w3.org/2000/svg" viewBox="0 0 142.22 143.31"><defs><style>.cls-1{fill:#fff200;}.cls-2{fill:#231f20;}</style></defs><g id="Layer_2" data-name="Layer 2"><g id="Layer_1-2" data-name="Layer 1"><path class="cls-1" d="M126.89,112a26.25,26.25,0,1,1-26.25-26.26A26.27,26.27,0,0,1,126.89,112Z"/><path class="cls-2" d="M108.94,106,93.61,121.29a2.09,2.09,0,0,1-1.51.63,2.15,2.15,0,0,1-1.51-.63l-7.66-7.66a2.14,2.14,0,0,1,3-3l6.14,6.16,13.81-13.82a2.14,2.14,0,1,1,3,3Z"/><path class="cls-1" d="M77.57,70.82a5.06,5.06,0,1,1-5.06-5.06A5.07,5.07,0,0,1,77.57,70.82Z"/><path class="cls-2" d="M73.41,61.92l-.22-.05V37.5a2.08,2.08,0,0,0-4.16,0V61.87l-.23.05a9.16,9.16,0,0,0-6.68,6.87l0,.24H44.93a2.08,2.08,0,0,0,0,4.16H62.24l.07.21a9.19,9.19,0,1,0,11.1-11.48Zm-2.3,14a5.06,5.06,0,1,1,5.06-5.06A5.07,5.07,0,0,1,71.11,75.88Z"/><path class="cls-2" d="M71.11,22.92A2.08,2.08,0,0,1,69,20.84V18.46a2.08,2.08,0,0,1,4.16,0v2.38A2.08,2.08,0,0,1,71.11,22.92Z"/><path class="cls-2" d="M121.1,72.91a2.09,2.09,0,0,1,0-4.17h2.38a2.09,2.09,0,0,1,0,4.17Z"/><path class="cls-2" d="M18.74,72.91a2.09,2.09,0,0,1,0-4.17h2.38a2.09,2.09,0,0,1,0,4.17Z"/><path class="cls-2" d="M106.48,37.56A2.08,2.08,0,0,1,105,34l1.7-1.69a2.06,2.06,0,0,1,1.46-.61,2.1,2.1,0,0,1,1.47.61,2.07,2.07,0,0,1,0,2.93L107.94,37A2.1,2.1,0,0,1,106.48,37.56Z"/><path class="cls-2" d="M34.07,109.92a2.08,2.08,0,0,1-1.48-.6,2.1,2.1,0,0,1,0-2.94l1.69-1.68a2.09,2.09,0,0,1,3.57,1.46,2.1,2.1,0,0,1-.61,1.47l-1.69,1.69A2.13,2.13,0,0,1,34.07,109.92Z"/><path class="cls-2" d="M35.79,37.53a2,2,0,0,1-1.48-.6l-1.69-1.69a2.07,2.07,0,1,1,2.93-2.93L37.24,34a2.06,2.06,0,0,1-1.45,3.53Z"/><path class="cls-2" d="M54.45,140.2a2.2,2.2,0,0,1-.5-.06,71.16,71.16,0,1,1,83.48-43.41,2.09,2.09,0,0,1-1.94,1.33h0a2.11,2.11,0,0,1-.74-.14,2.07,2.07,0,0,1-1.18-2.68A67,67,0,1,0,55,136.1a2.08,2.08,0,0,1-.5,4.1Z"/><path class="cls-2" d="M95.59,80.7A31.31,31.31,0,1,0,126.89,112,31.3,31.3,0,0,0,95.59,80.7Zm0,58.61a27.31,27.31,0,1,1,27.3-27.3A27.33,27.33,0,0,1,95.59,139.31Z"/></g></g></svg>