<svg xmlns="http://www.w3.org/2000/svg" viewBox="0 0 181.87 126.08"><defs><style>.cls-1{fill:#fff200;}.cls-2{fill:#231f20;}</style></defs><g id="Layer_2" data-name="Layer 2"><g id="Layer_1-2" data-name="Layer 1"><path class="cls-1" d="M135.46,80.56V103.4a16.83,16.83,0,0,0-2.31,5.79.39.39,0,0,1-.14,0,1.33,1.33,0,0,1-.6.14h-47a.49.49,0,0,1,0-.14A17.5,17.5,0,0,0,68.11,95.07a17.59,17.59,0,0,0-17.23,14.17H36.29V80.56Z"/><path class="cls-1" d="M117.42,105.56a15.12,15.12,0,0,0-1,3.06,2.35,2.35,0,0,1-.74.17H76.56a12.59,12.59,0,0,0-.45-3.38,13.17,13.17,0,0,0-12.72-9.76,13.31,13.31,0,0,0-3.24.39,10.17,10.17,0,0,0-1.32.43,18.3,18.3,0,0,0-3-1.06,18.49,18.49,0,0,0-3.18-.5,17.55,17.55,0,0,1,15.15-3.12,17.65,17.65,0,0,1,12.83,13.62s0,.1,0,.15Z"/><path class="cls-1" d="M67.81,91.8a17.67,17.67,0,0,0-7.65,4.25,13.25,13.25,0,0,0-9.53,9.51H46.14A17.57,17.57,0,0,1,63.4,91.24,17.31,17.31,0,0,1,67.81,91.8Z"/><path class="cls-2" d="M80.64,105.41s0,.1,0,.15h47a1.59,1.59,0,0,0,.61-.15ZM127.69,110h.44v0A3.15,3.15,0,0,1,127.69,110Z"/><path class="cls-2" d="M1.88,36.14a1.68,1.68,0,1,1,0-3.36H37.22a1.7,1.7,0,0,1,1.68,1.68,1.68,1.68,0,0,1-1.68,1.68Z"/><path class="cls-2" d="M7.77,49.4a1.69,1.69,0,0,1,0-3.37H37.22a1.69,1.69,0,0,1,0,3.37Z"/><path class="cls-2" d="M15.13,62.65a1.68,1.68,0,0,1,0-3.36H37.22a1.68,1.68,0,0,1,0,3.36Z"/><path class="cls-2" d="M145.66,126.08a17.29,17.29,0,0,1-17.19-16.14l0-.31h-.32l-.43,0H80.61l0,.3a17.23,17.23,0,0,1-34.39,0l0-.3h-16a2.78,2.78,0,0,1-2.2-1,2.86,2.86,0,0,1-.61-1.74V72.34h3.71l.54,0h99.48V3.92H31.25V23.09H27.34V2.82A2.82,2.82,0,0,1,30.15,0h102A2.81,2.81,0,0,1,135,2.82V45.55h2.56l.2,0h26.48a2.14,2.14,0,0,1,1.79.87L181.3,72.79c.06.11.16.23.25.36.22.29.32.45.32.58v24.5l-.05.55v9.69H163.1l-.15,0h0v.32A17.28,17.28,0,0,1,145.66,126.08Zm0-30.74a13.61,13.61,0,0,0-6.08,1.43,13.49,13.49,0,0,0-7.41,12.06,10.06,10.06,0,0,0,.06,1.16,13.49,13.49,0,1,0,13.43-14.65Zm-82.26,0a12.4,12.4,0,0,0-3.33.41,9.65,9.65,0,0,0-1.36.42,13.49,13.49,0,0,0-8.35,9.17l0,.14a13.56,13.56,0,0,0-.4,3.33A8.74,8.74,0,0,0,50,110a13.48,13.48,0,0,0,26.86,0,10.61,10.61,0,0,0,.06-1.19,13.21,13.21,0,0,0-.46-3.47A13.5,13.5,0,0,0,63.4,95.33Zm64.3,10.55a1.84,1.84,0,0,0,.68-.14.53.53,0,0,0,.23-.11l.12-.08,0-.13A16.86,16.86,0,0,1,131,99.75l0-.08V76.41H31.25v29.33H46.44l.05-.26A17.29,17.29,0,0,1,63.4,91.56a17.23,17.23,0,0,1,16.92,13.92.49.49,0,0,0,.05.21l.09.19Zm50.36-1.17V97.88l0-.55V76.1H151.44V49.27H135v46l.52-.37a17,17,0,0,1,4.34-2.27,17.39,17.39,0,0,1,22.8,11.82l.07.24ZM176.79,72,163.11,49.27h-7.62V72Z"/><path class="cls-2" d="M1.88,36.34a1.88,1.88,0,0,1,0-3.76H37.22a1.9,1.9,0,0,1,1.88,1.88,1.88,1.88,0,0,1-1.88,1.88Z"/><path class="cls-2" d="M7.77,49.6a1.89,1.89,0,0,1,0-3.77H37.22a1.89,1.89,0,0,1,0,3.77Z"/><path class="cls-2" d="M15.13,62.85a1.89,1.89,0,0,1,0-3.77H37.22A1.91,1.91,0,0,1,39.1,61a1.89,1.89,0,0,1-1.88,1.88Z"/></g></g></svg>