<svg xmlns="http://www.w3.org/2000/svg" viewBox="0 0 144.13 144.11"><defs><style>.cls-1{fill:#fff200;}.cls-2{fill:#231f20;}</style></defs><g id="Layer_2" data-name="Layer 2"><g id="Layer_1-2" data-name="Layer 1"><rect class="cls-1" x="8.75" y="4.4" width="135.38" height="17.5"/><path class="cls-2" d="M141.89,0H2.18A2.22,2.22,0,0,0,0,2.2V141.91a2.18,2.18,0,0,0,2.18,2.2H141.89a2.18,2.18,0,0,0,2.2-2.2V2.2A2.22,2.22,0,0,0,141.89,0Zm-2.17,139.77H4.34V26.24H139.72Zm0-117.87H4.34V4.4H139.72Z"/><path class="cls-2" d="M132.62,13.08a2,2,0,0,1-.65,1.56,2.24,2.24,0,0,1-1.52.65,2.36,2.36,0,0,1-1.56-.65,2.13,2.13,0,0,1-.64-1.56,2.06,2.06,0,0,1,.64-1.48,2.18,2.18,0,0,1,3.08,0A2,2,0,0,1,132.62,13.08Z"/><path class="cls-2" d="M120.6,13.08A2.17,2.17,0,1,1,118.43,11,2.18,2.18,0,0,1,120.6,13.08Z"/><path class="cls-2" d="M108.61,13.08a2.15,2.15,0,0,1-.65,1.56,2.14,2.14,0,0,1-3.07,0,2.14,2.14,0,0,1-.66-1.56,2.09,2.09,0,0,1,.66-1.48,2.17,2.17,0,0,1,3.07,0A2.2,2.2,0,0,1,108.61,13.08Z"/><path class="cls-1" d="M134.78,83a30,30,0,1,1-30-30A30,30,0,0,1,134.78,83Z"/><path class="cls-2" d="M121.66,61.82a.37.37,0,0,1,0-.13c-.06-.07-.15-.13-.22-.2a31.4,31.4,0,0,0-33.47-8.42l-.1-.07L90,49.25a4.59,4.59,0,0,0,.46-3.44,4.82,4.82,0,0,0-2.08-2.72l-6-3.44a4.51,4.51,0,0,0-6.13,1.62L74.14,45.1a31.36,31.36,0,0,0-4.83-1.36V39.46a4.5,4.5,0,0,0-4.47-4.54h-6.9a4.5,4.5,0,0,0-4.47,4.54v4.28a31.36,31.36,0,0,0-4.83,1.36l-2.17-3.83a4.5,4.5,0,0,0-6.13-1.62l-5.93,3.44a4.54,4.54,0,0,0-1.65,6.16L34.94,53a40.24,40.24,0,0,0-3.53,3.5l-3.79-2.14a4.39,4.39,0,0,0-3.38-.45A4.34,4.34,0,0,0,21.53,56l-3.45,6A4.47,4.47,0,0,0,19.7,68l3.77,2.2A37.2,37.2,0,0,0,22.17,75H17.82a4.54,4.54,0,0,0-4.47,4.54v6.87a4.49,4.49,0,0,0,4.47,4.48h4.35a40.79,40.79,0,0,0,1.3,4.84L19.7,97.92A4.45,4.45,0,0,0,18.08,104L21.53,110a4.44,4.44,0,0,0,6.09,1.62l3.79-2.13A40.86,40.86,0,0,0,34.94,113l-2.18,3.76a4.46,4.46,0,0,0,1.65,6.09l5.93,3.43a4.5,4.5,0,0,0,6.13-1.62l2.17-3.76a43.69,43.69,0,0,0,4.83,1.31v4.33A4.47,4.47,0,0,0,57.94,131h6.9a4.48,4.48,0,0,0,4.47-4.47v-4.33a43.69,43.69,0,0,0,4.83-1.31l2.16,3.76a4.5,4.5,0,0,0,6.13,1.62l6-3.43A4.45,4.45,0,0,0,90,116.77L87.84,113c0-.06.07-.06.1-.13a30.31,30.31,0,0,0,10.27,1.74,31.65,31.65,0,0,0,23.23-10.17l.19-.19c0-.06,0-.06,0-.06a31.45,31.45,0,0,0,0-42.38ZM80.1,122.47,77,117.16a2.12,2.12,0,0,0-2.66-1,34.64,34.64,0,0,1-7.55,2,2.22,2.22,0,0,0-1.84,2.2l-.1,6.23-7-.07v-6.16a2.23,2.23,0,0,0-1.84-2.2,34.88,34.88,0,0,1-7.56-2,3.05,3.05,0,0,0-.77-.14,2.18,2.18,0,0,0-1.91,1.11l-3.24,5.38-6-3.57,3.07-5.37a2.21,2.21,0,0,0-.51-2.8,40.08,40.08,0,0,1-5.55-5.5,2.2,2.2,0,0,0-2.78-.59l-5.51,3.05-3.38-6.09,5.32-3a2.23,2.23,0,0,0,1-2.73,35,35,0,0,1-2-7.51A2.16,2.16,0,0,0,24,86.57l-6.29-.13.09-7H24a2.16,2.16,0,0,0,2.13-1.88,35.11,35.11,0,0,1,2-7.52,2.13,2.13,0,0,0-1-2.65l-5.38-3.24,3.59-6,5.36,3.12a2.18,2.18,0,0,0,2.78-.53,34.84,34.84,0,0,1,5.55-5.51,2.29,2.29,0,0,0,.51-2.85l-3.05-5.44,6.09-3.44,3.09,5.38a2.2,2.2,0,0,0,2.68.91,34.88,34.88,0,0,1,7.56-2,2.23,2.23,0,0,0,1.84-2.15l.1-6.28,7,.13v6.15a2.22,2.22,0,0,0,1.84,2.15,34.64,34.64,0,0,1,7.55,2A2.16,2.16,0,0,0,77,48.85l3.24-5.44,6,3.63-3.07,5.31a2.12,2.12,0,0,0,.35,2.59,32.34,32.34,0,0,0-7.2,5.26,27.24,27.24,0,1,0-14.93,50,26.88,26.88,0,0,0,14.93-4.47A32,32,0,0,0,83.5,111a2.14,2.14,0,0,0-.35,2.6l3,5.5Zm-6.78-59a31.43,31.43,0,0,0,0,39,22.85,22.85,0,1,1,0-38.95Zm24.92,46.87A27.4,27.4,0,1,1,125.63,83,27.4,27.4,0,0,1,98.24,110.37Z"/><path class="cls-2" d="M113.14,77.3a15.7,15.7,0,0,1-1.58,12.42l-.18.24-6-3.24.17-.29a8.76,8.76,0,1,0-5.12,3.78l-.91-3.07,8.13,4.4-4.42,8.14-.87-3a15.42,15.42,0,0,1-19-10.56,15.25,15.25,0,0,1,1.21-11.74,15.57,15.57,0,0,1,28.58,2.89Z"/></g></g></svg>