<svg xmlns="http://www.w3.org/2000/svg" viewBox="0 0 143.91 137.98"><defs><style>.cls-1{fill:#fff200;}.cls-2{fill:#231f20;}</style></defs><g id="Layer_2" data-name="Layer 2"><g id="Layer_1-2" data-name="Layer 1"><path class="cls-1" d="M85.09,49.5,49.18,63c-.38-1.1-.72-2.23-1-3.35a43.56,43.56,0,0,1-1-4.86,47.1,47.1,0,0,1,1-19.12c.28-1,.58-2,.93-3Z"/><path class="cls-1" d="M126.17,34.07,90,47.67,50.51,29.12A45.54,45.54,0,0,1,56.67,18.8c.84-1.06,1.73-2.11,2.67-3.11l.93-.95A46.8,46.8,0,0,1,68.9,7.91Z"/><path class="cls-1" d="M134.83,40.63v39.7A46.85,46.85,0,0,1,117,94.2c-1.28.56-2.59,1.08-3.93,1.52A46.57,46.57,0,0,1,65.33,84.47c-.71-.71-1.39-1.43-2-2.18a46.94,46.94,0,0,1-3.93-5.14,45.07,45.07,0,0,1-3.69-6.82Z"/><path class="cls-2" d="M107.41,94.86V110.5L57.64,133.37V81.44a48,48,0,0,1-3.93-5.15V133L3.93,112.7v-69L43.08,60.54l4.48,1.93a45,45,0,0,1-1-4.86l-4.19-1.77L6.8,40.78l24.61-9.91L44,36.79l3.62,1.71c.34-1.27.73-2.54,1.18-3.79L45.24,33l-8.85-4.16L50,23.39l5.28-2.12.78.37c.84-1.06,1.73-2.11,2.68-3.11l-2.6-1.17a1.92,1.92,0,0,0-1.54,0l-.07,0L.92,38.9A2.27,2.27,0,0,0,0,40.71H0V114a1.81,1.81,0,0,0,1.06,1.8l52.75,21.6a3.64,3.64,0,0,0,3.3.28l50.3-23.07,2.41-1.1a2.59,2.59,0,0,0,1.52-2.36V93.34A41.45,41.45,0,0,1,107.41,94.86Z"/><path class="cls-2" d="M98.24,98.13a46.66,46.66,0,0,1-9.92-1.06A46.14,46.14,0,0,1,59.66,83.61c-.7-.71-1.38-1.43-2-2.17v5.67A50.52,50.52,0,0,0,107.41,99V97.22A45.71,45.71,0,0,1,98.24,98.13Zm30.82-12.57.11-.1A53.07,53.07,0,0,0,132.89,81c.68-.91,1.33-1.84,1.94-2.78a50.75,50.75,0,0,0-6.55-63.45A50.48,50.48,0,0,0,67.85,6.46c-1.29.72-2.57,1.52-3.8,2.37a50.06,50.06,0,0,0-7.18,6c-.81.83-1.59,1.67-2.34,2.53A48.89,48.89,0,0,0,50,23.39a48,48,0,0,0-3.66,6.89c-.39.91-.76,1.82-1.1,2.75-.09.24-.18.48-.25.73-.38,1-.69,2-1,3a51.11,51.11,0,0,0-1.62,19.05c.15,1.57.39,3.14.69,4.7a50.2,50.2,0,0,0,1.81,6.67c.42,1.23.9,2.45,1.41,3.66a50.75,50.75,0,0,0,7.4,12c1,1.2,2,2.37,3.17,3.49.25.25.5.5.76.74A50.52,50.52,0,0,0,107.41,99c1.32-.41,2.65-.87,3.93-1.4A49.64,49.64,0,0,0,123,91q1.7-1.29,3.29-2.73ZM92.58,3.93A46.24,46.24,0,0,1,125.5,17.58a46.85,46.85,0,0,1,9.33,52.61c-.58,1.27-1.22,2.52-1.93,3.75V37.2a2.34,2.34,0,0,0-1.52-1.7l-.1,0c-1.5-.7-21.93-10-41.71-19.06C83.74,13.71,77.87,11,72.38,8.53A46.09,46.09,0,0,1,92.58,3.93ZM51.1,29.4a45.08,45.08,0,0,1,5-7.76c.84-1.06,1.73-2.11,2.67-3.11l.93-1a47,47,0,0,1,8.64-6.83l54.13,24.73,3.14,1.43L89.36,50.51,49.91,32C50.28,31.1,50.67,30.24,51.1,29.4ZM47.56,62.47a42.67,42.67,0,0,1-1-4.86,46.8,46.8,0,0,1,.81-18.14c.07-.33.15-.65.24-1s.19-.72.3-1.08.16-.55.25-.82.1-.35.16-.51.14-.43.22-.64L81.4,50.89l3.09,1.45L48.57,65.82C48.19,64.72,47.85,63.59,47.56,62.47ZM125.5,83.61a46.45,46.45,0,0,1-14.16,9.73,41.45,41.45,0,0,1-3.93,1.52,46.32,46.32,0,0,1-14.83,2.41c-1.43,0-2.85-.06-4.26-.2A46.14,46.14,0,0,1,59.66,83.61c-.7-.71-1.38-1.43-2-2.17a48,48,0,0,1-3.93-5.15A45.45,45.45,0,0,1,50,69.48l79.16-29.71v39.7A46,46,0,0,1,125.5,83.61Z"/><path class="cls-2" d="M142.82,136.7a1.9,1.9,0,0,1-1.53.1,2,2,0,0,1-1.11-1l-21.85-43.3-.08-.16,3.53-1.72,21.92,43.41A2,2,0,0,1,142.82,136.7Z"/><polygon class="cls-2" points="122.33 50.18 122.33 54.71 89.64 67.96 89.64 63.44 122.33 50.18"/><polygon class="cls-2" points="122.33 59.35 122.33 63.87 89.64 77.11 89.64 72.59 122.33 59.35"/><polygon class="cls-2" points="122.33 68.74 122.33 73.26 89.64 86.52 89.64 81.99 122.33 68.74"/></g></g></svg>