<svg xmlns="http://www.w3.org/2000/svg" viewBox="0 0 142.6 123.16"><defs><style>.cls-1{fill:#fff200;}.cls-2{fill:#231f20;}.cls-3{fill:#fff;}</style></defs><g id="Layer_2" data-name="Layer 2"><g id="Layer_1-2" data-name="Layer 1"><circle class="cls-1" cx="74.32" cy="64.6" r="54.81"/><path class="cls-2" d="M122.49,87.93c-.66,1.28-1.37,2.53-2.12,3.75a57.56,57.56,0,0,1-98.15,0c-.75-1.22-1.46-2.47-2.12-3.75H15.64q.9,1.92,1.95,3.75a61.55,61.55,0,0,0,107.41,0q1.05-1.83,2-3.75Zm2.45-56.57a61.56,61.56,0,0,0-107.29,0c-.69,1.22-1.35,2.47-2,3.75h4.48q1-1.92,2.13-3.75a57.55,57.55,0,0,1,98,0q1.14,1.83,2.13,3.75h4.48C126.29,33.83,125.63,32.58,124.94,31.36Z"/><path d="M120.29,31.36h-98q-1.14,1.83-2.13,3.75H122.42Q121.43,33.19,120.29,31.36ZM0,31.36V91.68H142.6V31.36ZM138.85,87.93H3.74V35.11H138.85ZM120.29,31.36h-98q-1.14,1.83-2.13,3.75H122.42Q121.43,33.19,120.29,31.36Zm0,0h-98q-1.14,1.83-2.13,3.75H122.42Q121.43,33.19,120.29,31.36Z"/><rect class="cls-3" x="3.74" y="35.11" width="135.11" height="52.82"/><rect x="108" y="72.5" width="24.31" height="3.74"/><path d="M87.54,76.25a1.87,1.87,0,0,1-1.87-1.87V64.76l-8.33,4.81a1.87,1.87,0,0,1-2.52-.71,1.88,1.88,0,0,1,.66-2.54l8.32-4.8-8.33-4.81a1.87,1.87,0,0,1,.94-3.49,1.8,1.8,0,0,1,.93.25l8.33,4.81V48.66a1.87,1.87,0,1,1,3.74,0v9.62l8.33-4.81a1.78,1.78,0,0,1,.93-.25,1.87,1.87,0,0,1,.94,3.49l-8.33,4.81,8.33,4.81a1.87,1.87,0,0,1-1,3.47,1.82,1.82,0,0,1-.91-.24l-8.32-4.8v9.62A1.87,1.87,0,0,1,87.54,76.25Z"/><path d="M55.05,76.18a1.86,1.86,0,0,1-1.87-1.82v-9.6l-8.32,4.81a1.88,1.88,0,0,1-.9.23h0a1.87,1.87,0,0,1-1-3.48l8.32-4.8L43,56.71a1.84,1.84,0,0,1-.88-1.14,1.87,1.87,0,0,1,1.82-2.35,1.83,1.83,0,0,1,.93.25l8.32,4.81V48.66a1.88,1.88,0,0,1,3.75,0v9.6l8.32-4.81a1.84,1.84,0,0,1,.94-.25,1.87,1.87,0,0,1,.93,3.49L58.8,61.52l8.32,4.81a1.85,1.85,0,0,1,.64,2.52,1.89,1.89,0,0,1-1.63.94,1.84,1.84,0,0,1-.89-.23l-8.31-4.8v9.62A1.86,1.86,0,0,1,55.05,76.18Z"/><path d="M22.57,76.24a1.87,1.87,0,0,1-1.87-1.87V64.76l-8.33,4.8a1.87,1.87,0,0,1-1.86-3.24l8.32-4.81-8.33-4.8a1.88,1.88,0,0,1-.68-2.56,1.86,1.86,0,0,1,1.62-.93,1.78,1.78,0,0,1,.93.25l8.33,4.81V48.66a1.87,1.87,0,0,1,3.74,0v9.62l8.32-4.81a1.83,1.83,0,0,1,.93-.25,1.87,1.87,0,0,1,.94,3.49l-8.32,4.8,8.32,4.81a1.87,1.87,0,0,1-1,3.48,2,2,0,0,1-.91-.24l-8.32-4.8v9.61A1.86,1.86,0,0,1,22.57,76.24Z"/></g></g></svg>