<svg xmlns="http://www.w3.org/2000/svg" viewBox="0 0 142.55 146.22"><defs><style>.cls-1{fill:#231f20;}.cls-2{fill:#fff200;}</style></defs><g id="Layer_2" data-name="Layer 2"><g id="Layer_1-2" data-name="Layer 1"><path class="cls-1" d="M71.93,146.22a2,2,0,0,1-2-2V126.78a2,2,0,0,1,4,0v17.44A2,2,0,0,1,71.93,146.22Z"/><path class="cls-1" d="M142.16,133.41l0-.19L119.45,88.38a10.11,10.11,0,0,0-9.64-7.15h-18c-.15.27-.32.55-.48.82l-.29.51c-.49.81-1,1.63-1.49,2.46a2.39,2.39,0,0,1-.13.21h20.38a6.1,6.1,0,0,1,5.85,4.43l0,.19,22.65,44.82a6.08,6.08,0,0,1-5.89,7.55H10.08a6.07,6.07,0,0,1-5.85-7.7L28,89.87l.15-.35a6,6,0,0,1,5.8-4.29H54.43L54.29,85,52.8,82.56l-.29-.51L52,81.23H33.92a10,10,0,0,0-9.56,6.92L.6,132.82l-.14.35a10.07,10.07,0,0,0,9.62,13.05H132.47a10.07,10.07,0,0,0,9.69-12.81Z"/><path class="cls-1" d="M128.75,113.21H99.19a2,2,0,0,1,0-4h29.56a2,2,0,0,1,0,4Z"/><path class="cls-1" d="M44,113.21H14.36a2,2,0,0,1,0-4H44a2,2,0,1,1,0,4Z"/><path class="cls-2" d="M106.89,41.5c0,.52,0,1,0,1.57a51.32,51.32,0,0,1-2.56,13.08c-.42,1.32-.9,2.7-1.42,4.1-.65,1.79-1.47,3.74-2.45,5.94-1.3,2.93-2.79,5.94-4.55,9.24-.26.49-.52,1-.8,1.44s-.47.88-.7,1.29c-.61,1.1-1.22,2.17-1.87,3.25l-.27.47c-.45.75-.91,1.51-1.38,2.27C89,87.25,87,90.37,84.9,93.43c-1.44,2.13-2.86,4.15-4.17,6-2,2.79-4.07,5.58-6.19,8.34-2.17-2.81-4.22-5.56-6.2-8.35-1.36-1.87-2.76-3.88-4.19-6C62,90.17,60,87.14,58.21,84.14l-1.38-2.26-.27-.47c-.64-1.07-1.25-2.16-1.88-3.27-.5-.89-1-1.82-1.48-2.72-1.57-2.92-3.06-5.91-4.41-8.9l-.61-1.44-2-4.84a71.29,71.29,0,0,1-2.83-9.19h0c-.31-1.32-.56-2.61-.73-3.86h0a35.9,35.9,0,0,1-.47-5.67,32.36,32.36,0,1,1,64.72,0Z"/><path class="cls-1" d="M107.28,22.68a40.34,40.34,0,0,0-1.88-3.57A38.87,38.87,0,0,0,38,19.87c-.64,1.14-1.23,2.32-1.76,3.53A38.85,38.85,0,0,0,33,38.93c0,.42,0,.83,0,1.28h0a56.38,56.38,0,0,0,2.31,13.47c.62,2.22,1.4,4.53,2.29,6.91l3.22,7.74c.5,1.09,1,2.19,1.57,3.29.68,1.4,1.39,2.8,2.11,4.19h0l.86,1.61c.54,1,1.08,2,1.65,3,.15.26.29.52.44.77.54,1,1.08,1.91,1.63,2.84l.3.49c.13.22.26.45.4.67.36.62.73,1.23,1.11,1.82,2,3.29,4.11,6.62,6.52,10.18,1.56,2.32,3.09,4.54,4.58,6.59,1,1.4,2,2.79,3.06,4.19,1.69,2.29,3.45,4.59,5.29,7l1.55,2,1.54-2q2.7-3.43,5.28-7,1.55-2.1,3-4.2c1.45-2,3-4.23,4.59-6.59,2.26-3.35,4.45-6.77,6.51-10.14L94,85.23c.13-.22.27-.44.4-.67l.3-.49c.55-.93,1.08-1.87,1.63-2.84l.45-.8.75-1.36.42-.79.47-.83c.59-1.09,1.15-2.18,1.69-3.22,1.23-2.43,2.33-4.75,3.34-7,1.11-2.46,2-4.64,2.75-6.67.36-.94.69-1.89,1-2.81.51-1.52,1-3,1.37-4.46a59.41,59.41,0,0,0,1.94-9.58,41.57,41.57,0,0,0,.27-4.64v-.13A38.72,38.72,0,0,0,107.28,22.68Zm-.43,18a55.9,55.9,0,0,1-2.77,14.13c-.45,1.43-1,2.92-1.53,4.43-.71,1.94-1.59,4-2.65,6.42-1.4,3.17-3,6.42-4.92,10-.28.53-.56,1-.86,1.56s-.51.95-.76,1.39c-.5.91-1,1.8-1.54,2.69-.15.27-.32.55-.48.82l-.29.51c-.49.81-1,1.63-1.49,2.46a2.39,2.39,0,0,1-.13.21c-2,3.27-4.11,6.58-6.3,9.81-1.56,2.31-3.09,4.49-4.51,6.5-2.15,3-4.39,6-6.68,9-2.35-3-4.56-6-6.71-9-1.46-2-3-4.2-4.52-6.5-2.31-3.43-4.37-6.63-6.28-9.8L54.29,85,52.8,82.56l-.29-.51L52,81.23c-.52-.89-1-1.79-1.55-2.71s-1.09-2-1.6-2.94c-1.7-3.15-3.31-6.38-4.77-9.61l-.66-1.56-2.14-5.23a78,78,0,0,1-3.06-9.93h0c-.33-1.43-.6-2.82-.79-4.17h0a39.5,39.5,0,0,1-.5-6.13,35,35,0,1,1,69.93,0C106.89,39.49,106.88,40.06,106.85,40.63Z"/><path class="cls-1" d="M86.9,39.45a15.67,15.67,0,0,1-1.59,12.46l-.17.25-6-3.25.17-.3a8.79,8.79,0,1,0-5.14,3.8l-.92-3.08,8.17,4.42L77,61.92l-.87-3A15.55,15.55,0,1,1,86.9,39.45Z"/></g></g></svg>